<?xml version="1.0" standalone="no"?>
<!DOCTYPE svg PUBLIC "-//W3C//DTD SVG 20010904//EN"
 "http://www.w3.org/TR/2001/REC-SVG-20010904/DTD/svg10.dtd">
<svg version="1.0" xmlns="http://www.w3.org/2000/svg"
 width="1024.000000pt" height="1024.000000pt" viewBox="0 0 1024.000000 1024.000000"
 preserveAspectRatio="xMidYMid meet">

<g transform="translate(0.000000,1024.000000) scale(0.100000,-0.100000)"
fill="#000000" stroke="none">
<path d="M6194 8211 c-31 -13 -35 -23 -35 -86 -1 -51 -3 -55 -28 -60 -94 -19
-185 -77 -244 -157 -68 -93 -82 -209 -36 -308 53 -114 127 -171 255 -195 43
-9 79 -17 81 -19 2 -2 -1 -15 -7 -30 -5 -15 -10 -72 -10 -127 0 -99 0 -100
-22 -94 -46 14 -87 46 -127 100 -46 61 -67 67 -124 39 -78 -40 -96 -76 -68
-139 39 -88 147 -165 265 -189 l61 -13 5 -82 c4 -67 9 -85 24 -97 26 -19 106
-18 134 2 20 13 22 24 22 95 l0 79 33 0 c88 0 215 106 257 215 34 88 38 188
10 253 -37 85 -117 148 -240 187 -30 9 -61 24 -67 33 -18 22 -18 232 0 232 18
0 58 -29 87 -65 56 -66 55 -66 101 -49 112 39 137 96 76 175 -47 62 -110 106
-175 125 -31 8 -63 17 -69 19 -9 3 -13 25 -13 63 0 46 -4 63 -20 77 -22 20
-95 29 -126 16z m-24 -477 l0 -125 -49 27 c-65 35 -88 80 -72 135 13 44 62 89
97 89 l24 0 0 -126z m218 -387 c49 -24 67 -104 35 -157 -14 -24 -78 -70 -97
-70 -4 0 -6 56 -5 125 1 139 -1 136 67 102z"/>
<path d="M4320 7745 c-137 -19 -179 -30 -293 -76 -195 -77 -325 -166 -497
-339 -97 -97 -140 -149 -189 -230 -79 -129 -100 -179 -146 -355 -33 -125 -37
-154 -38 -268 0 -77 4 -132 10 -138 7 -7 160 -11 457 -12 l446 -2 -6 66 c-4
36 -2 87 4 115 22 101 109 209 213 264 98 52 259 65 372 30 160 -50 283 -204
294 -369 2 -36 6 -76 9 -88 l4 -23 443 0 443 0 -3 113 c-7 229 -50 412 -137
585 -122 242 -329 451 -579 582 -238 125 -555 182 -807 145z m90 -410 l0 -235
-29 0 c-77 0 -273 -100 -366 -186 l-23 -21 -160 158 -159 157 61 60 c144 140
395 260 611 291 33 5 61 9 63 10 1 0 2 -105 2 -234z m285 210 c224 -39 465
-166 624 -328 l53 -55 -123 -103 c-68 -57 -154 -134 -192 -170 -66 -64 -67
-65 -85 -46 -23 26 -109 90 -149 110 -50 26 -183 67 -217 67 -18 0 -37 5 -44
12 -9 9 -12 83 -12 270 l0 258 29 0 c15 0 68 -7 116 -15z m-1056 -410 c9 -8
46 -38 82 -67 36 -29 109 -91 162 -138 l97 -84 -20 -21 c-11 -12 -20 -31 -20
-44 0 -12 -4 -20 -9 -17 -12 8 -34 -21 -26 -34 3 -5 2 -10 -3 -10 -6 0 -8 -10
-5 -21 6 -21 7 -21 20 5 7 14 18 26 23 26 9 0 -42 -114 -72 -160 -20 -30 -36
-90 -20 -75 5 6 12 19 15 30 3 12 5 8 4 -10 -1 -22 -7 -30 -19 -29 -10 0 -122
1 -249 2 l-232 2 6 88 c7 110 55 272 109 372 37 68 127 199 137 200 2 0 11 -7
20 -15z m671 -107 c0 -10 2 -10 8 -2 8 13 102 15 102 2 0 -4 -12 -10 -27 -13
-85 -18 -175 -54 -230 -91 -55 -37 -60 -39 -41 -15 13 16 38 34 56 40 17 7 32
17 32 22 0 5 7 9 16 9 8 0 13 4 10 8 -7 12 5 26 34 39 33 15 40 15 40 1z m867
-508 c8 0 11 -5 8 -10 -6 -9 60 -4 77 6 4 2 9 0 13 -6 4 -7 47 -9 118 -6 73 3
98 2 72 -3 -22 -5 -102 -11 -177 -13 l-137 -5 -6 31 c-4 17 -8 40 -11 51 -2
11 3 5 13 -12 9 -18 23 -33 30 -33z"/>
<path d="M5962 6793 c-29 -4 -33 -8 -29 -26 19 -77 30 -170 36 -294 l6 -143
400 -3 400 -3 88 -27 c107 -33 146 -53 257 -127 101 -68 207 -176 278 -282 28
-42 56 -79 62 -83 16 -10 12 215 -6 303 -58 280 -196 483 -398 582 -114 57
-291 100 -438 107 l-118 6 0 -55 c0 -70 -20 -96 -102 -137 -85 -43 -161 -43
-246 0 -70 35 -102 77 -110 145 -5 47 -2 46 -80 37z"/>
<path d="M2999 6755 c-89 -32 -161 -87 -223 -169 -45 -59 -107 -188 -126 -261
-15 -56 -19 -1181 -9 -2350 6 -714 2 -670 70 -853 95 -258 314 -471 604 -585
190 -75 73 -70 1705 -76 806 -3 1501 -3 1546 1 127 11 293 68 413 141 190 115
328 276 415 483 69 164 78 216 83 452 l5 212 77 0 76 0 0 648 0 647 -75 3
c-42 2 -77 8 -82 15 -4 6 -6 81 -6 167 1 137 -2 166 -25 255 -17 62 -50 148
-89 225 -55 111 -72 134 -148 210 -124 124 -266 206 -418 241 -32 7 -594 12
-1782 14 -1235 2 -1749 6 -1784 14 -75 18 -156 61 -208 113 -66 65 -68 80 -20
180 37 75 41 93 47 186 4 56 3 102 -2 101 -4 0 -24 -6 -44 -14z m-96 -651 c53
-48 142 -89 263 -120 l99 -25 1710 2 c1909 2 1738 8 1890 -68 130 -66 230
-164 294 -290 31 -62 26 -63 -19 -3 -22 29 -40 57 -40 60 0 13 -106 111 -145
135 -48 29 -49 29 -69 9 -9 -8 -25 -16 -35 -17 -11 -1 -22 -9 -24 -19 -5 -17
-32 -18 -59 -2 -7 4 -8 3 -4 -4 9 -15 1 -15 -23 0 -23 14 -46 0 -54 -32 -4
-16 0 -20 18 -20 18 0 21 -4 17 -25 -2 -14 -8 -22 -13 -20 -4 3 -6 12 -3 19 3
9 -5 16 -22 20 -16 4 -24 10 -18 14 12 9 17 42 7 42 -4 0 -19 -10 -33 -21 -16
-14 -19 -19 -7 -15 22 7 22 4 -2 -16 -17 -14 -20 -14 -25 -2 -3 8 -1 12 4 9 6
-4 7 1 3 11 -6 16 -8 15 -16 -4 -6 -12 -19 -22 -29 -22 -25 0 -58 -18 -58 -31
0 -6 9 -8 19 -4 11 3 22 1 26 -4 4 -7 -1 -8 -11 -4 -13 5 -15 3 -9 -7 6 -10 4
-12 -8 -7 -12 4 -14 2 -10 -10 5 -12 1 -14 -17 -8 -20 6 -22 4 -17 -14 4 -15
0 -21 -11 -21 -14 0 -15 -2 -3 -9 12 -8 12 -12 2 -25 -7 -8 -9 -21 -5 -27 5
-8 3 -9 -5 -4 -7 4 -10 16 -8 27 4 12 1 18 -6 15 -7 -2 -12 -12 -12 -23 0 -10
-2 -21 -6 -24 -3 -3 -15 -25 -28 -49 -22 -43 -22 -44 -2 -38 30 7 26 -2 -5
-13 -19 -8 -25 -16 -21 -30 3 -12 0 -20 -7 -20 -6 0 -16 -9 -21 -19 -17 -33
-78 -136 -84 -141 -3 -3 -11 -14 -17 -25 -16 -28 -75 -67 -93 -60 -9 3 -12 3
-8 -1 9 -9 -83 -55 -158 -78 -33 -11 -94 -41 -135 -69 -41 -27 -80 -50 -87
-51 -7 -1 -16 -6 -20 -11 -4 -4 -2 -5 5 -1 8 5 -13 -18 -45 -50 -33 -33 -61
-63 -63 -69 -3 -5 -8 -9 -13 -7 -4 1 -6 -1 -5 -5 2 -10 -10 -41 -24 -68 -30
-53 -47 -92 -53 -118 -3 -15 -9 -26 -13 -23 -4 2 -8 -14 -9 -35 -3 -50 12 -43
21 10 3 22 10 42 15 45 4 3 2 -19 -5 -50 -27 -118 -26 -263 2 -351 5 -15 4
-15 -5 -3 -15 21 -30 102 -35 190 -6 90 -5 90 -15 65 -5 -12 -4 -23 3 -28 8
-6 7 -10 -2 -14 -6 -2 -9 -10 -5 -16 21 -33 2 -152 -21 -130 -3 4 -6 1 -6 -5
0 -7 -10 -13 -22 -13 l-23 -2 23 -4 c12 -2 22 -9 22 -15 0 -6 -9 -8 -20 -5
-11 3 -18 1 -14 -4 3 -5 12 -9 20 -9 8 0 12 -5 9 -10 -4 -6 -16 -8 -28 -5 -17
5 -19 4 -7 -4 20 -14 24 -14 49 8 14 12 17 21 10 23 -7 2 -10 11 -7 18 3 11 8
9 17 -9 11 -19 11 -25 0 -32 -11 -7 -9 -9 6 -9 18 -1 18 -2 4 -13 -14 -11 -15
-16 -4 -30 7 -10 22 -19 33 -20 16 -1 19 -5 11 -19 -7 -13 -6 -16 4 -12 8 3
22 -3 32 -12 17 -17 17 -17 11 4 -12 35 2 25 24 -18 19 -38 20 -42 4 -73 -25
-47 -122 -139 -264 -252 -69 -55 -168 -140 -220 -190 -207 -198 -298 -263
-529 -381 -171 -87 -218 -106 -365 -143 -198 -51 -349 -66 -651 -65 -257 0
-276 2 -384 27 -131 31 -147 33 -106 10 17 -10 33 -16 38 -15 4 1 7 -11 7 -26
0 -15 6 -34 13 -41 10 -11 10 -13 0 -7 -14 8 -17 -4 -5 -20 4 -6 -28 25 -71
69 -43 43 -94 102 -113 131 -48 71 -92 216 -104 339 -9 98 -20 2717 -12 2717
3 0 23 -16 45 -36z m3852 -374 c-3 -5 -11 -10 -16 -10 -6 0 -7 5 -4 10 3 6 11
10 16 10 6 0 7 -4 4 -10z m57 3 c-6 -2 -10 -9 -7 -14 4 -5 -1 -6 -10 -3 -11 5
-14 2 -9 -12 6 -16 5 -17 -7 -6 -12 11 -11 15 5 28 11 8 25 14 30 13 6 0 5 -3
-2 -6z m40 -47 c7 4 8 2 4 -4 -11 -18 -26 -14 -25 6 0 10 3 12 6 4 2 -6 10 -9
15 -6z m-277 -6 c3 -5 1 -10 -4 -10 -6 0 -11 5 -11 10 0 6 2 10 4 10 3 0 8 -4
11 -10z m115 6 c0 -2 -7 -6 -15 -10 -8 -3 -15 -1 -15 4 0 6 7 10 15 10 8 0 15
-2 15 -4z m108 -31 c-3 -3 -9 2 -12 12 -6 14 -5 15 5 6 7 -7 10 -15 7 -18z
m-158 1 c0 -3 -4 -8 -10 -11 -5 -3 -10 -1 -10 4 0 6 5 11 10 11 6 0 10 -2 10
-4z m55 -6 c3 -5 1 -10 -4 -10 -6 0 -11 5 -11 10 0 6 2 10 4 10 3 0 8 -4 11
-10z m-28 -26 c-3 -3 -12 -4 -19 -1 -8 3 -5 6 6 6 11 1 17 -2 13 -5z m13 -35
c0 -6 -4 -7 -10 -4 -5 3 -10 11 -10 16 0 6 5 7 10 4 6 -3 10 -11 10 -16z
m-154 -11 c4 -7 4 -10 -1 -6 -4 4 -15 2 -24 -5 -14 -11 -14 -10 -2 6 16 20 18
21 27 5z m85 -11 c-10 -9 -11 -8 -5 6 3 10 9 15 12 12 3 -3 0 -11 -7 -18z m44
-7 c3 -5 1 -10 -4 -10 -6 0 -11 5 -11 10 0 6 2 10 4 10 3 0 8 -4 11 -10z
m-145 -16 c0 -8 -19 -13 -24 -6 -3 5 1 9 9 9 8 0 15 -2 15 -3z m60 -35 c0 -6
-4 -7 -10 -4 -5 3 -10 11 -10 16 0 6 5 7 10 4 6 -3 10 -11 10 -16z m-43 -95
c-3 -3 -12 -4 -19 -1 -8 3 -5 6 6 6 11 1 17 -2 13 -5z m932 -596 c7 -20 -32
-38 -85 -38 -43 0 -53 -3 -57 -20 -3 -11 -1 -20 3 -20 5 0 10 8 13 18 2 9 4 2
4 -15 0 -34 -14 -42 -36 -20 -11 10 -13 8 -8 -11 3 -12 1 -20 -3 -17 -5 3 -16
-2 -24 -11 -15 -14 -16 -14 -16 0 0 9 -4 16 -9 16 -5 0 -7 -9 -4 -20 3 -12 -1
-22 -10 -26 -13 -5 -14 -9 -4 -19 7 -7 17 -10 22 -7 6 3 4 -2 -4 -11 -9 -12
-17 -14 -26 -7 -6 5 -15 7 -18 3 -4 -3 1 -11 10 -18 12 -9 13 -16 6 -30 -7
-12 -13 -14 -17 -6 -4 6 -2 11 3 11 6 0 11 5 11 12 0 9 -3 9 -12 0 -17 -17
-31 -15 -24 3 8 22 -2 18 -15 -6 -7 -13 -7 -19 -1 -15 6 3 13 2 16 -3 3 -5 -1
-12 -10 -15 -8 -3 -12 -10 -9 -16 3 -5 1 -10 -5 -10 -7 0 -10 7 -7 15 4 8 1
17 -5 21 -7 4 -8 3 -4 -4 4 -7 1 -12 -8 -12 -9 0 -16 -5 -16 -11 0 -5 5 -7 11
-4 6 4 5 -2 -3 -14 -12 -20 -13 -20 -20 -2 -9 26 -21 32 -38 19 -12 -8 -12 -9
2 -4 28 8 31 -12 8 -44 -12 -16 -19 -33 -16 -38 2 -4 -9 -8 -26 -9 -17 0 -26
2 -20 6 6 4 7 12 3 20 -7 11 -10 9 -16 -8 -3 -11 -11 -21 -17 -21 -6 0 -8 -11
-6 -24 3 -17 1 -23 -8 -19 -7 2 -19 -8 -28 -24 -8 -15 -15 -24 -16 -19 0 5 -6
5 -13 0 -7 -5 -5 -1 6 8 13 12 16 24 12 40 -7 21 -8 21 -20 -8 -8 -16 -14 -23
-14 -16 -1 7 -5 11 -10 8 -5 -3 -11 1 -15 9 -6 17 10 30 17 15 3 -6 4 -5 3 1
-1 7 -9 13 -17 14 -11 2 -15 -6 -15 -26 0 -15 3 -27 7 -26 4 1 7 -1 8 -5 3
-24 -1 -28 -15 -14 -20 21 -54 20 -69 -1 -11 -15 -15 -16 -30 -3 -17 14 -18
12 -12 -25 4 -22 4 -34 1 -27 -8 17 -21 15 -21 -3 0 -8 6 -15 13 -15 7 0 15
-6 17 -12 4 -10 8 -9 16 2 7 9 11 10 11 3 0 -18 -19 -26 -34 -14 -18 15 -46 3
-46 -20 0 -30 1 -34 11 -31 6 1 5 -7 -1 -18 -6 -11 -16 -18 -22 -14 -6 4 -8 0
-4 -12 8 -25 -9 -53 -17 -29 -4 9 -3 13 2 10 6 -3 8 7 7 22 -3 30 -20 41 -32
22 -4 -8 -3 -9 4 -5 7 4 12 3 12 -2 0 -6 -6 -12 -14 -15 -12 -5 -14 7 -7 46 2
14 23 7 42 -15 10 -13 18 -18 19 -11 0 6 -4 15 -10 18 -12 7 -8 32 9 63 7 13
10 28 7 35 -2 7 -5 4 -5 -5 -1 -20 -17 -24 -23 -6 -3 7 -7 5 -11 -6 -4 -10 -3
-15 3 -11 6 3 10 1 10 -4 0 -11 -19 -15 -50 -12 -13 2 -13 0 -1 -8 8 -5 20 -7
28 -4 7 3 13 1 13 -5 0 -5 -9 -12 -20 -15 -24 -6 -41 -46 -29 -69 5 -9 9 -25
9 -36 0 -11 8 -26 17 -33 15 -12 16 -12 10 4 -4 11 -3 16 3 12 6 -3 10 -13 10
-22 0 -11 -6 -14 -24 -9 -15 4 -26 1 -29 -7 -4 -9 -6 -9 -6 0 -1 6 3 14 7 17
12 7 2 66 -12 68 -22 2 -31 5 -48 13 -22 9 -52 -1 -43 -14 3 -6 12 -8 19 -5 8
3 17 1 21 -5 4 -8 12 -8 25 -1 14 7 19 5 23 -9 4 -15 1 -18 -12 -13 -14 5 -14
4 -2 -11 8 -10 11 -20 7 -24 -3 -3 -6 -1 -6 7 0 10 -4 10 -17 -1 -16 -13 -17
-12 -5 3 9 12 10 18 2 23 -7 4 -14 -2 -17 -13 -3 -13 -10 -19 -20 -15 -8 3
-18 1 -22 -5 -9 -15 -33 -17 -65 -3 -16 6 -31 9 -34 7 -3 -3 7 -10 22 -15 14
-6 26 -16 26 -23 0 -10 -2 -10 -9 0 -4 7 -17 14 -29 15 -11 0 -19 4 -17 7 2 3
-3 13 -10 23 -8 12 -15 14 -20 8 -3 -6 -1 -11 6 -11 14 0 -31 -44 -55 -53 -9
-4 -16 -2 -16 3 0 6 -4 10 -10 10 -5 0 -9 -5 -7 -11 1 -6 -4 -14 -10 -16 -7
-3 -13 0 -13 6 0 6 -5 11 -11 11 -5 0 -8 -4 -4 -9 3 -6 -19 -8 -57 -5 -43 3
-64 1 -70 -8 -6 -10 -8 -10 -8 0 0 6 -9 12 -20 12 -11 0 -20 6 -21 13 0 10 -2
10 -6 0 -2 -7 -12 -13 -20 -13 -11 0 -7 -8 13 -25 l29 -25 -46 15 c-57 20
-151 94 -201 160 -61 80 -80 143 -81 265 -2 95 1 111 26 164 60 128 163 215
299 250 70 18 1361 13 1367 -6z m-1871 -173 c-6 -14 -13 -23 -15 -21 -5 5 15
46 22 46 3 0 -1 -11 -7 -25z m1672 11 c0 -3 -4 -8 -10 -11 -5 -3 -10 -1 -10 4
0 6 5 11 10 11 6 0 10 -2 10 -4z m-82 -147 c-6 -16 -12 -28 -14 -26 -5 5 13
57 20 57 3 0 0 -14 -6 -31z m-47 -22 c-10 -9 -11 -8 -5 6 3 10 9 15 12 12 3
-3 0 -11 -7 -18z m-121 -77 c0 -5 -4 -10 -10 -10 -5 0 -10 5 -10 10 0 6 5 10
10 10 6 0 10 -4 10 -10z m-170 -75 c11 -13 10 -14 -4 -9 -12 5 -15 2 -9 -12 4
-12 3 -15 -6 -10 -7 5 -10 15 -7 25 5 13 3 13 -8 -2 -8 -11 -17 -14 -20 -8 -4
5 2 14 11 20 24 14 28 14 43 -4z m-45 -37 c5 4 5 1 1 -6 -6 -11 -12 -10 -27 4
-10 9 -19 22 -19 28 1 6 9 1 19 -11 10 -12 22 -19 26 -15z m-1265 -148 c0 -5
-5 -10 -11 -10 -5 0 -7 5 -4 10 3 6 8 10 11 10 2 0 4 -4 4 -10z m1224 -16 c5
-14 4 -15 -9 -4 -17 14 -19 20 -6 20 5 0 12 -7 15 -16z m-1073 -181 c13 -16
12 -17 -3 -4 -10 7 -18 15 -18 17 0 8 8 3 21 -13z m766 10 c-20 -2 -52 -2 -70
0 -17 2 0 4 38 4 39 0 53 -2 32 -4z m-552 -166 c17 -8 62 -26 100 -39 l70 -23
590 1 c484 2 550 0 370 -7 -419 -17 -780 -24 -880 -17 -165 10 -272 56 -395
168 -43 39 -41 38 35 -13 44 -30 94 -61 110 -70z"/>
<path d="M6475 5661 c-3 -5 -2 -12 3 -15 5 -3 9 1 9 9 0 17 -3 19 -12 6z"/>
<path d="M5575 4730 c-3 -5 -1 -10 4 -10 6 0 11 5 11 10 0 6 -2 10 -4 10 -3 0
-8 -4 -11 -10z"/>
<path d="M5550 4690 c-8 -5 -12 -12 -9 -15 4 -3 12 1 19 10 14 17 11 19 -10 5z"/>
<path d="M4951 4537 c-11 -13 -21 -27 -21 -32 0 -4 8 1 18 12 9 11 24 22 32
25 9 3 10 7 3 11 -5 3 -20 -4 -32 -16z"/>
<path d="M4900 4495 c-11 -13 -10 -14 4 -9 9 3 16 10 16 15 0 13 -6 11 -20 -6z"/>
<path d="M5493 4502 c-7 -4 -9 -13 -4 -21 6 -9 10 -7 14 8 3 12 4 21 4 21 -1
0 -7 -4 -14 -8z"/>
<path d="M4865 4469 c-4 -6 -5 -12 -2 -15 2 -3 7 2 10 11 7 17 1 20 -8 4z"/>
<path d="M4826 4444 c-11 -8 -16 -14 -10 -14 13 0 39 18 34 24 -3 2 -14 -2
-24 -10z"/>
<path d="M4780 4415 c-8 -9 -8 -15 -2 -15 12 0 26 19 19 26 -2 2 -10 -2 -17
-11z"/>
<path d="M4661 4334 c-116 -78 -463 -254 -591 -301 -52 -19 -96 -36 -98 -37
-1 -2 5 -9 15 -17 9 -8 14 -9 10 -2 -10 16 12 28 26 14 9 -9 15 -7 27 8 22 28
161 82 178 69 9 -8 11 -7 6 5 -4 12 2 20 23 28 15 6 37 16 47 21 15 8 18 7 13
-6 -3 -8 -2 -18 3 -21 10 -6 14 7 11 35 -2 13 -1 13 8 0 5 -8 7 -18 5 -22 -3
-4 -1 -8 5 -8 6 0 15 10 22 22 10 18 9 20 -6 14 -15 -5 -16 -4 -5 9 14 17 35
21 25 5 -3 -5 -1 -10 5 -10 6 0 8 -4 5 -10 -3 -5 -1 -10 4 -10 6 0 11 -4 11
-10 0 -6 -3 -9 -7 -9 -21 3 -31 -3 -41 -26 -11 -24 -11 -25 9 -14 23 12 51 -3
30 -15 -6 -4 -11 -2 -11 4 0 6 -4 8 -10 5 -5 -3 -10 -14 -10 -23 0 -15 2 -15
10 -2 8 13 10 12 10 -2 0 -20 25 -24 36 -6 5 8 2 9 -9 5 -25 -10 -20 9 8 31
13 11 21 23 17 27 -4 4 5 6 20 3 15 -3 25 -2 22 3 -2 4 4 13 13 19 16 10 15
10 -4 5 -13 -3 -32 -8 -43 -11 -11 -3 -20 -1 -20 5 0 6 8 11 17 11 15 0 15 1
-2 14 -12 9 -16 19 -11 32 7 18 6 18 -11 1 -15 -15 -16 -19 -3 -27 8 -5 11
-12 7 -17 -5 -4 -12 -1 -17 7 -21 33 -10 47 65 80 41 18 75 37 75 43 0 5 7 4
15 -3 13 -11 15 -10 11 1 -3 9 12 22 41 37 25 12 48 21 50 18 3 -3 6 -16 7
-30 1 -30 0 -30 25 -14 19 11 19 13 -6 34 -25 21 -25 22 -6 33 11 5 23 7 27 4
3 -3 6 1 6 9 0 9 7 21 16 29 13 10 17 10 25 -2 5 -8 9 -9 9 -4 0 33 -21 27
-109 -31z m-231 -248 c0 -23 -16 -27 -17 -5 -1 10 2 19 8 19 5 0 9 -6 9 -14z"/>
<path d="M4785 4360 c3 -5 8 -10 11 -10 2 0 4 5 4 10 0 6 -5 10 -11 10 -5 0
-7 -4 -4 -10z"/>
<path d="M4749 4313 c-13 -16 -12 -17 4 -4 16 13 21 21 13 21 -2 0 -10 -8 -17
-17z"/>
<path d="M5410 4315 c-8 -9 -8 -15 -2 -15 12 0 26 19 19 26 -2 2 -10 -2 -17
-11z"/>
<path d="M4727 4289 c7 -7 15 -10 18 -7 3 3 -2 9 -12 12 -14 6 -15 5 -6 -5z"/>
<path d="M5440 4289 c0 -5 5 -7 10 -4 6 3 10 8 10 11 0 2 -4 4 -10 4 -5 0 -10
-5 -10 -11z"/>
<path d="M4448 4153 c6 -2 18 -2 25 0 6 3 1 5 -13 5 -14 0 -19 -2 -12 -5z"/>
<path d="M4480 4140 c-13 -8 -12 -10 3 -10 9 0 17 5 17 10 0 12 -1 12 -20 0z"/>
<path d="M4666 4098 c3 -5 10 -6 15 -3 13 9 11 12 -6 12 -8 0 -12 -4 -9 -9z"/>
<path d="M4207 4053 c19 -7 -10 -33 -36 -33 -12 0 -21 -4 -21 -9 0 -10 32 -5
65 9 11 5 29 11 40 13 18 4 18 5 -2 6 -12 0 -25 6 -28 11 -3 6 -12 10 -18 9
-9 0 -9 -2 0 -6z"/>
<path d="M4080 3999 c-14 -11 -19 -18 -13 -14 10 5 11 0 4 -18 -7 -17 -6 -24
3 -24 7 0 13 5 14 11 5 54 26 72 36 31 4 -14 11 -25 17 -25 6 0 7 5 4 10 -3 6
-1 10 5 10 7 0 9 -8 5 -20 -5 -15 -2 -20 14 -20 11 0 22 4 25 9 4 5 -3 7 -15
4 -19 -5 -20 -4 -10 16 7 11 10 21 9 22 -2 0 -12 2 -23 4 -11 2 -21 9 -23 14
-6 17 -24 13 -52 -10z"/>
<path d="M4248 4009 c-3 -9 -21 -15 -50 -18 -5 -1 -8 -6 -8 -12 0 -8 6 -7 16
2 15 12 16 11 10 -7 -4 -14 -2 -21 8 -21 8 0 12 7 9 16 -4 14 -3 14 9 -1 13
-15 15 -15 26 2 6 11 9 26 6 35 -7 17 -21 20 -26 4z"/>
<path d="M4270 3960 c0 -5 7 -7 15 -4 8 4 15 8 15 10 0 2 -7 4 -15 4 -8 0 -15
-4 -15 -10z"/>
<path d="M4113 3939 c14 -23 24 -24 24 -5 0 8 -8 17 -18 19 -15 4 -16 2 -6
-14z"/>
<path d="M4294 3934 c-18 -15 -18 -15 2 -5 12 6 25 7 29 3 5 -4 5 -1 1 6 -9
15 -8 15 -32 -4z"/>
<path d="M4033 3923 c1 -15 5 -19 12 -13 6 5 20 7 32 4 11 -3 23 -2 26 3 3 4
-9 8 -26 8 -18 -1 -35 4 -39 10 -4 5 -6 0 -5 -12z"/>
<path d="M4210 3931 c0 -5 9 -7 20 -4 11 3 20 7 20 9 0 2 -9 4 -20 4 -11 0
-20 -4 -20 -9z"/>
<path d="M4171 3927 c2 -1 12 -9 22 -16 15 -12 17 -12 11 3 -3 9 -13 16 -22
16 -8 0 -13 -1 -11 -3z"/>
<path d="M4263 3899 c-2 -23 3 -25 10 -4 4 8 3 16 -1 19 -4 3 -9 -4 -9 -15z"/>
<path d="M4295 3911 c-3 -5 -1 -12 5 -16 5 -3 10 1 10 9 0 18 -6 21 -15 7z"/>
<path d="M3608 3903 c7 -3 16 -2 19 1 4 3 -2 6 -13 5 -11 0 -14 -3 -6 -6z"/>
<path d="M4868 3903 c6 -2 18 -2 25 0 6 3 1 5 -13 5 -14 0 -19 -2 -12 -5z"/>
<path d="M3038 3893 c7 -3 16 -2 19 1 4 3 -2 6 -13 5 -11 0 -14 -3 -6 -6z"/>
<path d="M4146 3891 c-4 -5 3 -7 14 -4 23 6 26 13 6 13 -8 0 -17 -4 -20 -9z"/>
<path d="M4800 3896 c0 -2 7 -7 16 -10 8 -3 12 -2 9 4 -6 10 -25 14 -25 6z"/>
<path d="M4910 3896 c0 -2 7 -7 16 -10 8 -3 12 -2 9 4 -6 10 -25 14 -25 6z"/>
<path d="M5156 3893 c-10 -3 -28 -13 -39 -23 -19 -19 -19 -19 2 -13 11 3 21 9
21 14 0 5 6 9 14 9 8 0 18 5 21 10 3 6 5 9 3 9 -2 -1 -12 -4 -22 -6z"/>
<path d="M3273 3883 c43 -2 110 -2 150 0 40 1 5 3 -78 3 -82 0 -115 -2 -72 -3z"/>
<path d="M3818 3883 c7 -3 16 -2 19 1 4 3 -2 6 -13 5 -11 0 -14 -3 -6 -6z"/>
<path d="M4190 3886 c0 -9 30 -14 35 -6 4 6 -3 10 -14 10 -12 0 -21 -2 -21 -4z"/>
<path d="M4766 3872 c-3 -5 1 -9 9 -9 8 0 12 4 9 9 -3 4 -7 8 -9 8 -2 0 -6 -4
-9 -8z"/>
<path d="M4698 3863 c7 -3 16 -2 19 1 4 3 -2 6 -13 5 -11 0 -14 -3 -6 -6z"/>
<path d="M4895 3854 c16 -8 34 -22 38 -30 10 -17 30 -19 24 -1 -2 6 3 17 12
24 13 10 10 11 -18 7 -18 -3 -31 -2 -28 3 3 5 -9 10 -26 11 l-32 2 30 -16z"/>
<path d="M5060 3849 c0 -5 5 -7 10 -4 6 3 10 8 10 11 0 2 -4 4 -10 4 -5 0 -10
-5 -10 -11z"/>
<path d="M3917 3830 c-16 -20 -12 -27 8 -12 9 6 19 32 12 32 -1 0 -10 -9 -20
-20z"/>
<path d="M4285 3840 c-3 -6 1 -7 9 -4 18 7 21 14 7 14 -6 0 -13 -4 -16 -10z"/>
<path d="M4890 3838 c0 -9 7 -19 15 -22 12 -4 15 -16 11 -48 -3 -23 -10 -45
-17 -48 -6 -5 -7 -10 -2 -13 5 -4 20 1 32 9 18 13 20 19 10 30 -8 10 -9 18 -2
25 8 8 13 7 17 0 11 -17 26 -13 26 5 0 9 7 22 16 29 9 6 15 17 13 23 -3 8 -15
2 -33 -13 -29 -25 -48 -32 -43 -17 1 4 -8 18 -20 32 -17 18 -23 20 -23 8z"/>
<path d="M3820 3830 c0 -5 9 -8 20 -7 21 1 18 10 -5 13 -8 1 -15 -2 -15 -6z"/>
<path d="M4515 3830 c3 -5 8 -10 11 -10 2 0 4 5 4 10 0 6 -5 10 -11 10 -5 0
-7 -4 -4 -10z"/>
<path d="M5025 3830 c-3 -6 1 -7 9 -4 18 7 21 14 7 14 -6 0 -13 -4 -16 -10z"/>
<path d="M5047 3822 c-40 -18 -60 -58 -37 -72 8 -5 8 -10 2 -14 -5 -3 -13 1
-16 10 -3 8 -11 12 -16 9 -6 -4 -18 -1 -27 7 -15 12 -15 11 -4 -9 7 -14 17
-20 26 -17 8 4 15 1 15 -6 0 -7 -8 -10 -20 -7 -10 3 -25 -2 -31 -10 -16 -18
-54 -40 -45 -24 5 8 -33 39 -41 33 -2 -1 -10 -2 -19 -2 -12 0 -10 5 9 20 14
11 31 20 39 20 7 0 2 -9 -12 -20 -16 -12 -19 -18 -9 -17 19 3 56 37 40 37 -6
0 -11 7 -11 16 0 8 5 12 10 9 6 -3 10 -1 10 4 0 6 -9 11 -19 11 -11 0 -22 6
-24 13 -5 10 -11 -16 -9 -35 1 -3 -5 -12 -13 -18 -13 -10 -15 -8 -13 14 1 14
7 26 13 26 5 0 3 5 -5 10 -8 5 -26 10 -40 10 -22 -1 -23 -2 -7 -11 15 -9 16
-13 6 -27 -11 -14 -11 -15 1 -4 19 16 35 16 21 -1 -6 -8 -8 -17 -5 -20 4 -4
-1 -18 -10 -32 -10 -15 -19 -36 -21 -47 -6 -28 -10 -31 -48 -32 -65 0 -84 16
-59 50 19 26 37 32 29 10 -4 -10 -1 -13 10 -9 8 3 18 0 22 -6 5 -7 8 0 9 17 0
23 -5 31 -21 36 -21 5 -47 -9 -47 -26 0 -5 -7 -16 -15 -24 -13 -14 -15 -14
-15 -1 0 9 5 17 12 19 8 3 6 7 -5 11 -9 3 -16 3 -16 -1 4 -22 -3 -30 -21 -27
-11 2 -22 0 -25 -6 -4 -5 8 -9 25 -9 26 0 33 -6 46 -35 18 -44 18 -45 -8 -44
-13 0 -17 3 -10 6 18 7 4 23 -21 22 -12 0 -16 -3 -9 -6 6 -2 12 -11 12 -18 0
-8 8 -19 18 -24 15 -9 14 -10 -8 -11 -14 0 -32 5 -40 11 -13 10 -13 10 1 6 9
-3 16 1 16 8 0 7 -5 11 -11 9 -6 -2 -11 9 -12 28 -1 18 1 27 3 21 6 -18 20
-16 20 2 0 8 -8 15 -17 15 -23 0 -32 -11 -20 -25 7 -9 6 -16 -4 -24 -11 -9
-15 -8 -20 5 -3 9 -4 20 0 25 8 13 -8 10 -30 -6 -13 -10 -17 -21 -12 -39 4
-18 1 -29 -15 -40 -12 -8 -18 -19 -15 -24 3 -6 0 -12 -8 -15 -16 -6 -17 24 -1
35 14 10 -5 39 -31 49 -12 4 -27 3 -35 -3 -11 -8 -10 -9 4 -4 9 3 17 1 17 -5
0 -6 6 -9 14 -6 8 3 17 -1 20 -9 5 -13 -5 -19 -26 -15 -5 0 -8 -3 -8 -9 0 -5
4 -10 10 -10 5 0 7 -7 3 -15 -4 -13 -8 -12 -21 6 -11 17 -12 24 -4 27 14 4 16
22 2 22 -5 0 -17 -14 -25 -30 -16 -31 -36 -32 -34 -2 0 14 2 14 8 -2 7 -19 8
-19 13 2 4 13 2 20 -4 16 -5 -3 -8 0 -6 7 1 8 -1 15 -6 17 -6 1 -11 -3 -12
-10 -2 -7 -6 -26 -9 -42 -11 -51 -9 -67 5 -46 6 9 10 10 10 3 0 -20 -16 -23
-40 -6 -22 15 -22 17 -5 30 11 7 14 13 8 13 -7 0 -18 -7 -26 -15 -8 -8 -17
-11 -21 -8 -3 4 -6 1 -6 -6 0 -9 -4 -8 -15 2 -8 9 -20 18 -27 20 -10 4 -10 7
0 15 11 7 7 11 -13 14 -17 4 -23 2 -17 -4 14 -14 2 -50 -14 -44 -19 7 -31 -42
-14 -57 10 -9 12 -9 7 4 -3 9 -1 22 5 30 8 11 9 10 4 -3 -3 -10 0 -18 6 -18 7
0 7 -5 -2 -14 -6 -8 -18 -12 -25 -9 -8 2 -26 -7 -40 -23 -14 -15 -25 -22 -25
-17 0 6 7 16 15 23 11 9 12 16 5 25 -8 9 -8 15 0 20 16 10 12 25 -7 25 -14 0
-15 -2 -5 -9 10 -6 9 -10 -7 -14 -24 -6 -51 27 -28 36 9 4 9 6 0 6 -18 1 -27
-19 -14 -32 15 -15 14 -27 -2 -27 -8 0 -22 -9 -32 -20 -12 -13 -26 -18 -39
-15 -12 3 -15 2 -8 -1 10 -5 9 -9 -5 -19 -16 -12 -15 -13 10 -12 15 1 29 9 32
17 5 13 7 13 16 0 9 -12 10 -10 6 7 -3 12 0 24 7 26 6 3 12 -6 12 -19 1 -13
-2 -25 -7 -25 -5 -1 -15 -2 -21 -3 -7 -1 -12 -7 -11 -14 2 -8 -7 -10 -26 -6
-22 5 -34 1 -47 -15 -13 -15 -20 -17 -26 -8 -4 7 4 23 19 39 15 16 21 28 15
28 -7 0 -15 -7 -19 -16 -3 -8 -11 -13 -18 -10 -7 2 -18 -6 -25 -19 -7 -13 -18
-21 -26 -18 -8 3 -14 0 -14 -7 0 -7 -8 -10 -20 -7 -24 6 -27 -8 -4 -17 9 -4
14 -9 11 -12 -8 -9 -48 16 -42 26 3 5 0 12 -6 15 -7 5 -9 0 -7 -12 4 -25 -19
-53 -43 -53 -10 0 -21 -9 -24 -21 -5 -15 -10 -18 -18 -10 -7 7 -7 14 2 24 9
11 7 17 -6 28 -16 13 -17 12 -4 -3 12 -16 9 -21 -9 -20 -3 0 -6 -11 -7 -25 -1
-20 1 -23 9 -12 8 11 8 10 4 -5 -4 -10 -1 -25 5 -32 9 -11 8 -14 -5 -14 -10 0
-14 4 -11 10 3 5 -5 20 -18 32 -21 20 -23 25 -10 37 8 7 12 16 9 19 -3 3 -16
-8 -28 -24 -42 -54 -80 -85 -98 -79 -10 3 -21 1 -25 -4 -3 -7 0 -8 9 -5 9 3
16 1 16 -5 0 -6 -4 -11 -10 -11 -5 0 -10 -9 -10 -20 0 -11 -5 -20 -11 -20 -5
0 -9 10 -7 23 3 25 -22 31 -30 7 -5 -13 -3 -13 14 0 17 14 18 14 6 -2 -8 -9
-11 -21 -8 -27 3 -5 -2 -8 -11 -7 -9 2 -19 9 -21 17 -3 11 -1 11 8 -1 8 -10
10 -11 8 -2 -2 8 -7 13 -12 12 -5 -1 -13 4 -17 12 -13 20 -12 -8 2 -33 8 -16
7 -25 -7 -40 -18 -20 -44 -26 -44 -10 0 6 5 13 10 16 6 4 7 11 4 17 -7 11 -40
-40 -36 -55 1 -5 -12 -5 -30 -2 -18 4 -44 8 -58 9 -19 3 -19 2 -2 -1 12 -2 20
-9 16 -14 -3 -5 -8 -7 -12 -5 -4 2 -12 -2 -19 -9 -19 -21 31 -33 165 -42 194
-13 433 -7 607 16 251 32 404 78 555 167 14 8 40 22 58 30 17 8 32 19 32 24 0
5 7 7 16 3 10 -4 17 2 21 18 6 20 7 21 13 5 6 -17 7 -17 20 0 9 11 10 15 3 10
-7 -4 -13 -3 -13 1 0 5 6 15 13 22 10 11 8 12 -10 6 -33 -9 -28 7 8 27 17 10
28 22 25 27 -3 5 2 12 11 15 9 4 20 2 23 -5 6 -8 9 -8 14 0 4 6 2 11 -4 11 -6
0 -8 5 -5 10 4 6 10 8 14 6 3 -3 7 4 7 15 0 10 -5 19 -11 19 -5 0 -3 5 5 10 8
5 20 10 25 10 6 0 3 -5 -5 -10 -11 -7 -11 -10 -2 -10 7 0 10 -4 7 -10 -3 -5
-1 -10 4 -10 6 0 11 8 11 19 0 20 27 48 37 37 3 -3 0 -6 -7 -6 -7 0 -11 -3 -8
-6 3 -3 15 0 27 7 19 13 19 14 -11 26 -27 12 -34 11 -52 -4 -19 -17 -20 -17
-7 0 10 12 10 17 2 17 -7 0 -9 5 -5 11 4 8 9 7 15 -2 7 -11 9 -9 9 6 1 19 1
19 11 1 9 -15 13 -16 20 -5 6 10 11 11 17 3 4 -5 16 -10 27 -10 32 0 32 44 1
52 -29 7 -25 30 7 38 22 5 22 5 2 -11 -18 -14 -18 -15 -2 -9 10 3 23 6 29 6 6
0 8 7 5 14 -4 10 -1 13 9 9 11 -4 15 0 12 13 -2 11 2 18 8 17 7 -1 15 9 18 22
4 14 12 25 19 25 18 0 20 47 2 54 -8 3 -12 12 -9 21 8 21 25 19 18 -2 -5 -17
-5 -17 6 0 15 24 4 40 -20 27 -13 -7 -21 -7 -26 2 -5 7 -3 8 6 3 10 -6 12 -4
7 9 -5 13 -3 17 7 13 8 -3 17 1 20 9 3 8 12 14 21 14 8 0 15 5 15 10 0 6 -1
10 -2 9 -2 0 -20 -8 -41 -17z m-316 -99 c13 -15 12 -15 -8 -4 -24 12 -29 21
-14 21 5 0 15 -7 22 -17z m237 -31 c-19 -2 -25 -8 -21 -18 3 -8 1 -14 -5 -14
-14 0 -8 30 8 40 7 4 20 5 29 2 12 -5 9 -8 -11 -10z m-138 -2 c0 -3 -6 -14
-12 -23 -12 -16 -13 -15 -13 6 0 13 6 24 13 24 6 0 12 -3 12 -7z m210 0 c0 -5
-2 -10 -4 -10 -3 0 -8 5 -11 10 -3 6 -1 10 4 10 6 0 11 -4 11 -10z m-180 -9
c0 -12 -20 -25 -27 -18 -7 7 6 27 18 27 5 0 9 -4 9 -9z m120 -14 c0 8 7 10 17
6 11 -4 12 -8 5 -11 -7 -2 -12 -10 -12 -18 0 -8 -9 -13 -24 -12 -14 1 -22 6
-20 10 3 4 12 4 22 1 14 -5 15 -3 5 8 -7 7 -13 18 -13 24 0 5 5 3 10 -5 6 -9
10 -11 10 -3z m-59 -40 c-10 -9 -11 -8 -5 6 3 10 9 15 12 12 3 -3 0 -11 -7
-18z m-376 3 c3 -5 1 -10 -4 -10 -6 0 -11 5 -11 10 0 6 2 10 4 10 3 0 8 -4 11
-10z m170 -2 c14 -6 25 -16 25 -21 0 -6 -3 -8 -6 -4 -4 3 -15 -4 -24 -16 l-18
-22 2 32 c1 18 -3 35 -8 37 -6 2 -8 5 -4 5 4 1 19 -4 33 -11z m51 -15 c-10
-10 -19 5 -10 18 6 11 8 11 12 0 2 -7 1 -15 -2 -18z m124 -5 c8 2 12 2 9 -2
-11 -11 -49 -15 -49 -5 0 6 -5 7 -12 3 -7 -4 -8 -3 -4 4 5 8 13 9 24 3 9 -4
24 -6 32 -3z m74 2 c-6 -6 -21 -12 -35 -15 -23 -4 -23 -4 -5 10 23 17 56 21
40 5z m-410 -16 c9 -24 7 -27 -9 -10 -17 17 -19 26 -6 26 5 0 12 -7 15 -16z
m123 -36 c-3 -8 -6 -5 -6 6 -1 11 2 17 5 13 3 -3 4 -12 1 -19z m210 7 c0 -8
-4 -15 -9 -15 -10 0 -11 14 -1 23 9 10 10 9 10 -8z m-337 -5 c12 -7 10 -9 -8
-7 -12 0 -22 5 -22 9 0 11 12 10 30 -2z m40 0 c0 -5 -5 -10 -11 -10 -5 0 -7 5
-4 10 3 6 8 10 11 10 2 0 4 -4 4 -10z m61 -17 c13 -16 12 -17 -3 -4 -14 11
-18 11 -18 1 0 -8 -3 -11 -6 -7 -5 5 3 27 10 27 2 0 10 -8 17 -17z m-101 -14
c0 -14 -26 -11 -39 5 -9 11 -6 12 14 8 14 -2 25 -8 25 -13z m289 7 c9 -10 8
-15 -2 -19 -8 -3 -13 3 -13 14 0 23 0 23 15 5z m97 -5 c-4 -5 -1 -11 6 -13 8
-3 6 -7 -5 -11 -11 -4 -17 -1 -17 8 0 9 -6 12 -17 8 -11 -4 -14 -3 -9 5 4 7
16 12 27 12 11 0 18 -4 15 -9z m-717 -23 c-10 -7 -7 -8 10 -4 23 5 23 4 8 -12
-12 -11 -20 -13 -27 -6 -13 13 -2 46 12 38 6 -4 5 -10 -3 -16z m166 3 c3 -5 1
-12 -5 -16 -5 -3 -10 1 -10 9 0 18 6 21 15 7z m419 1 c2 -4 0 -14 -6 -22 -8
-12 -9 -12 -5 2 3 9 1 19 -6 22 -9 3 -9 5 0 5 6 1 14 -3 17 -7z m-481 -35 c7
3 9 2 4 -2 -14 -16 -43 -12 -44 7 -2 16 0 17 13 3 9 -8 21 -12 27 -8z m-81
-29 c-20 -20 -22 -20 -22 -5 0 10 4 16 9 13 5 -3 12 1 15 10 4 9 9 14 13 10 4
-4 -3 -16 -15 -28z m122 7 c-4 -8 -10 -12 -15 -9 -11 6 -2 24 11 24 5 0 7 -7
4 -15z m41 6 c3 -5 2 -12 -3 -15 -5 -3 -9 1 -9 9 0 17 3 19 12 6z m376 -14
c-10 -9 -11 -8 -5 6 3 10 9 15 12 12 3 -3 0 -11 -7 -18z m-665 0 c4 -4 0 -7
-9 -7 -9 0 -17 -4 -17 -10 0 -5 -5 -10 -11 -10 -8 0 -8 4 0 14 9 11 9 15 -1
19 -7 3 -3 5 9 3 12 -1 26 -5 29 -9z m334 -1 c0 -2 -7 -7 -16 -10 -8 -3 -12
-2 -9 4 6 10 25 14 25 6z m-253 -32 c-3 -3 -12 -4 -19 -1 -8 3 -5 6 6 6 11 1
17 -2 13 -5z m595 -26 c-15 -15 -26 -4 -18 18 5 13 9 15 18 6 9 -9 9 -15 0
-24z m-714 2 c-7 -11 -16 -20 -20 -20 -5 0 -3 9 4 20 7 11 16 20 20 20 5 0 3
-9 -4 -20z m22 -10 c0 -5 -5 -10 -11 -10 -5 0 -7 5 -4 10 3 6 8 10 11 10 2 0
4 -4 4 -10z m655 -22 c-1 -17 -9 -23 -29 -25 -16 -1 -24 2 -20 8 3 6 12 8 19
5 7 -2 15 4 18 15 7 26 14 24 12 -3z m-846 -38 c1 -13 0 -13 -9 0 -5 8 -9 24
-9 35 l0 20 9 -20 c5 -11 9 -27 9 -35z m98 8 c-3 -7 -5 -2 -5 12 0 14 2 19 5
13 2 -7 2 -19 0 -25z m-17 13 c0 -6 -4 -13 -10 -16 -5 -3 -10 0 -10 7 0 9 -3
9 -10 -2 -5 -8 -10 -10 -10 -4 0 6 3 14 7 17 10 10 33 8 33 -2z m-118 -13 c-7
-7 -12 -20 -12 -30 0 -10 -4 -18 -10 -18 -5 0 -7 -8 -4 -17 5 -17 5 -17 -6 0
-12 18 -40 24 -40 7 0 -5 5 -10 11 -10 12 0 8 -21 -5 -23 -5 -1 -10 5 -11 13
-2 8 -4 20 -5 25 -8 35 13 44 38 15 7 -8 11 -10 10 -5 -3 15 21 55 34 55 9 0
9 -3 0 -12z m238 2 c0 -5 -5 -10 -11 -10 -5 0 -7 5 -4 10 3 6 8 10 11 10 2 0
4 -4 4 -10z m-140 -30 c0 -5 -4 -10 -10 -10 -5 0 -10 5 -10 10 0 6 5 10 10 10
6 0 10 -4 10 -10z m-30 -4 c0 -2 -6 -9 -13 -15 -10 -8 -14 -7 -14 4 0 8 6 15
14 15 7 0 13 -2 13 -4z m195 -6 c3 -6 -1 -7 -9 -4 -18 7 -21 14 -7 14 6 0 13
-4 16 -10z m-240 -21 c11 -17 -1 -21 -15 -4 -8 9 -8 15 -2 15 6 0 14 -5 17
-11z m85 7 c0 -3 -4 -8 -10 -11 -5 -3 -10 -1 -10 4 0 6 5 11 10 11 6 0 10 -2
10 -4z m-220 -20 c-7 -7 -14 -6 -21 1 -9 9 -7 12 9 10 14 -1 18 -5 12 -11z
m937 -8 c-3 -8 -6 -5 -6 6 -1 11 2 17 5 13 3 -3 4 -12 1 -19z m-1067 -12 c0
-8 -4 -17 -9 -21 -14 -8 -6 -55 10 -66 10 -6 16 -3 21 9 6 16 7 16 7 0 1 -29
-16 -29 -48 -2 -17 14 -32 23 -32 20 -1 -3 -3 -10 -4 -16 -1 -5 -3 -20 -4 -32
-2 -32 -12 -15 -16 25 -3 32 1 37 31 52 22 10 31 20 28 30 -4 8 -1 15 5 15 6
0 11 -6 11 -14z m25 -6 c3 -5 1 -10 -4 -10 -6 0 -11 5 -11 10 0 6 2 10 4 10 3
0 8 -4 11 -10z m60 0 c3 -5 1 -10 -4 -10 -6 0 -11 5 -11 10 0 6 2 10 4 10 3 0
8 -4 11 -10z m16 -23 c-10 -9 -11 -8 -5 6 3 10 9 15 12 12 3 -3 0 -11 -7 -18z
m239 9 c0 -3 -4 -8 -10 -11 -5 -3 -10 -1 -10 4 0 6 5 11 10 11 6 0 10 -2 10
-4z m-310 -21 c0 -1 -8 -9 -17 -16 -11 -10 -14 -10 -9 -1 4 7 2 12 -4 12 -6 0
-9 4 -5 10 5 8 35 4 35 -5z m204 7 c2 -4 -4 -8 -14 -8 -10 0 -16 4 -14 8 3 4
9 8 14 8 5 0 11 -4 14 -8z m-164 -18 c0 -8 -19 -13 -24 -6 -3 5 1 9 9 9 8 0
15 -2 15 -3z m280 2 c0 -3 -4 -8 -10 -11 -5 -3 -10 -1 -10 4 0 6 5 11 10 11 6
0 10 -2 10 -4z m-438 -38 c-9 -37 -34 -69 -48 -64 -8 3 -14 2 -14 -2 0 -4 -9
-8 -20 -8 -28 0 -25 26 3 28 36 2 41 3 55 11 7 5 10 13 6 18 -7 13 2 39 15 39
5 0 7 -10 3 -22z m187 1 c-7 -4 -17 -5 -22 -2 -5 3 -3 9 4 14 7 4 17 5 22 2 5
-3 3 -9 -4 -14z m-121 -22 c14 4 14 3 2 -5 -16 -12 -30 -7 -29 11 0 9 2 9 5 0
3 -7 13 -9 22 -6z m111 -17 c-6 -5 -18 -6 -26 -3 -19 8 -16 11 13 11 17 0 22
-3 13 -8z m-163 -30 c0 -9 -8 -17 -18 -17 -10 -1 -18 2 -18 8 0 5 5 9 11 9 5
0 8 4 5 8 -3 5 0 9 7 9 7 0 13 -8 13 -17z m144 -5 c0 -7 -30 -13 -34 -7 -3 4
4 9 15 9 10 1 19 0 19 -2z m-312 -25 c7 -11 11 -20 9 -20 -2 0 -12 9 -22 20
-10 11 -14 20 -9 20 5 0 15 -9 22 -20z m202 6 c0 -2 -7 -7 -16 -10 -8 -3 -12
-2 -9 4 6 10 25 14 25 6z m-250 -20 c0 -2 -6 -9 -13 -15 -10 -8 -14 -7 -14 4
0 8 6 15 14 15 7 0 13 -2 13 -4z"/>
<path d="M4700 3605 c0 -8 2 -15 4 -15 2 0 6 7 10 15 3 8 1 15 -4 15 -6 0 -10
-7 -10 -15z"/>
<path d="M4255 3819 c-4 -6 -5 -12 -2 -15 2 -3 7 2 10 11 7 17 1 20 -8 4z"/>
<path d="M5092 3808 c-2 -10 -9 -18 -14 -18 -5 0 -6 6 -2 13 5 9 4 9 -6 0 -10
-10 -11 -15 -1 -27 8 -9 10 -29 6 -55 -4 -26 -2 -41 5 -41 5 0 9 3 9 8 -3 20
2 25 12 12 8 -11 12 -12 16 -2 6 14 43 16 43 2 0 -5 -9 -10 -21 -10 -13 0 -18
-4 -13 -12 5 -8 2 -9 -9 -5 -9 3 -19 2 -22 -4 -4 -5 -11 -7 -16 -4 -5 3 -6 -1
-3 -9 3 -8 18 -22 32 -31 27 -16 27 -16 5 3 -13 12 -18 24 -13 32 6 10 9 10
12 -1 4 -10 12 -7 31 12 24 23 26 29 16 57 -6 17 -14 31 -17 31 -21 -3 -28 4
-26 28 0 20 7 29 25 34 20 6 18 7 -10 6 -23 -1 -35 -7 -39 -19z m10 -40 c-7
-7 -12 -8 -12 -2 0 6 3 14 7 17 3 4 9 5 12 2 2 -3 -1 -11 -7 -17z m18 -33 c-7
-8 -16 -15 -21 -15 -5 0 -9 7 -9 15 0 9 9 15 21 15 18 0 19 -2 9 -15z"/>
<path d="M4331 3804 c0 -11 3 -14 6 -6 3 7 2 16 -1 19 -3 4 -6 -2 -5 -13z"/>
<path d="M4636 3808 c3 -4 11 -5 19 -1 21 7 19 12 -4 10 -11 0 -18 -5 -15 -9z"/>
<path d="M4691 3789 c-7 -16 -10 -33 -7 -36 3 -4 6 -1 6 5 0 6 11 9 24 6 14
-2 28 0 31 6 4 6 3 10 -2 9 -28 -5 -41 2 -36 21 8 30 0 24 -16 -11z"/>
<path d="M4020 3788 c0 -4 7 -8 15 -8 8 0 15 4 15 8 0 5 -7 9 -15 9 -8 0 -15
-4 -15 -9z"/>
<path d="M4755 3790 c3 -5 8 -10 11 -10 2 0 4 5 4 10 0 6 -5 10 -11 10 -5 0
-7 -4 -4 -10z"/>
<path d="M5140 3788 c0 -11 28 -10 35 1 3 6 -4 9 -15 8 -11 -1 -20 -5 -20 -9z"/>
<path d="M3842 3770 c0 -14 2 -19 5 -12 2 6 2 18 0 25 -3 6 -5 1 -5 -13z"/>
<path d="M4080 3770 c-6 -11 -8 -20 -6 -20 3 0 10 9 16 20 6 11 8 20 6 20 -3
0 -10 -9 -16 -20z"/>
<path d="M4400 3781 c0 -6 4 -13 10 -16 6 -3 7 1 4 9 -7 18 -14 21 -14 7z"/>
<path d="M5190 3782 c0 -5 7 -15 15 -22 8 -7 15 -9 15 -6 0 4 -7 14 -15 22 -8
9 -15 11 -15 6z"/>
<path d="M4768 3764 c-4 -3 -1 -13 7 -20 17 -18 22 -18 22 1 0 8 -4 12 -8 9
-4 -2 -9 1 -11 7 -2 5 -6 7 -10 3z"/>
<path d="M4656 3745 c4 -8 8 -15 10 -15 2 0 4 7 4 15 0 8 -4 15 -10 15 -5 0
-7 -7 -4 -15z"/>
<path d="M4622 3730 c0 -14 2 -19 5 -12 2 6 2 18 0 25 -3 6 -5 1 -5 -13z"/>
<path d="M5170 3730 c0 -5 5 -10 10 -10 6 0 10 5 10 10 0 6 -4 10 -10 10 -5 0
-10 -4 -10 -10z"/>
<path d="M4084 3708 l-19 -23 25 20 c14 11 27 21 29 22 2 2 0 3 -6 3 -5 0 -18
-10 -29 -22z"/>
<path d="M4370 3726 c0 -2 9 -6 20 -9 11 -3 18 -1 14 4 -5 9 -34 13 -34 5z"/>
<path d="M4760 3702 c0 -25 -10 -34 -25 -22 -8 7 -21 7 -36 1 -13 -5 -22 -10
-19 -11 27 -7 59 -10 75 -6 21 5 31 41 14 51 -5 4 -9 -2 -9 -13z"/>
<path d="M4235 3701 c-3 -5 -1 -12 4 -15 5 -3 11 1 15 9 6 16 -9 21 -19 6z"/>
<path d="M4416 3685 c4 -8 11 -15 16 -15 6 0 5 6 -2 15 -7 8 -14 15 -16 15 -2
0 -1 -7 2 -15z"/>
<path d="M4520 3682 c-18 -15 -20 -19 -7 -19 10 0 15 3 12 5 -3 3 3 11 13 18
9 7 14 14 11 14 -4 0 -17 -8 -29 -18z"/>
<path d="M4280 3666 c0 -8 4 -17 9 -20 5 -4 7 3 4 14 -6 23 -13 26 -13 6z"/>
<path d="M4458 3673 c7 -3 16 -2 19 1 4 3 -2 6 -13 5 -11 0 -14 -3 -6 -6z"/>
<path d="M4630 3661 c0 -6 4 -13 10 -16 6 -3 7 1 4 9 -7 18 -14 21 -14 7z"/>
<path d="M4326 3638 c-9 -12 -16 -19 -16 -15 0 4 -10 2 -22 -5 -28 -15 -71
-20 -63 -7 4 5 2 9 -3 9 -6 0 -9 -11 -8 -24 1 -22 3 -23 18 -10 11 10 18 12
23 5 3 -6 0 -11 -7 -11 -10 0 -11 -2 0 -8 7 -5 10 -16 7 -24 -8 -21 6 -29 26
-15 11 8 14 18 8 32 -6 16 -8 17 -8 3 -1 -9 -5 -19 -9 -22 -5 -3 -7 5 -6 17 1
12 3 25 3 30 2 16 22 6 31 -15 8 -22 10 -20 14 22 0 8 9 15 18 15 27 0 41 20
24 34 -11 10 -17 8 -30 -11z m29 2 c3 -5 -1 -10 -10 -10 -9 0 -13 5 -10 10 3
6 8 10 10 10 2 0 7 -4 10 -10z"/>
<path d="M4390 3648 c0 -4 4 -8 9 -8 6 0 12 4 15 8 3 5 -1 9 -9 9 -8 0 -15 -4
-15 -9z"/>
<path d="M5037 3653 c-3 -5 -1 -17 3 -28 6 -17 7 -16 12 8 5 25 -5 37 -15 20z"/>
<path d="M4215 3640 c28 -12 37 -12 30 0 -3 6 -16 10 -28 9 -21 0 -21 -1 -2
-9z"/>
<path d="M4475 3639 c-4 -5 -4 -13 -1 -16 3 -4 6 0 6 8 0 11 2 11 10 -1 6 -9
10 -10 10 -3 0 17 -17 25 -25 12z"/>
<path d="M3975 3610 c-3 -6 1 -7 9 -4 18 7 21 14 7 14 -6 0 -13 -4 -16 -10z"/>
<path d="M4485 3600 c3 -5 8 -10 11 -10 2 0 4 5 4 10 0 6 -5 10 -11 10 -5 0
-7 -4 -4 -10z"/>
<path d="M4325 3580 c-4 -12 -5 -24 -2 -27 3 -2 8 5 12 17 4 12 5 24 2 27 -3
2 -8 -5 -12 -17z"/>
<path d="M5026 3592 c-3 -5 1 -9 9 -9 8 0 12 4 9 9 -3 4 -7 8 -9 8 -2 0 -6 -4
-9 -8z"/>
<path d="M3981 3573 c-7 -8 -11 -16 -8 -19 2 -2 10 2 17 11 17 20 9 27 -9 8z"/>
<path d="M4035 3560 c-3 -6 1 -7 9 -4 18 7 21 14 7 14 -6 0 -13 -4 -16 -10z"/>
<path d="M3900 3540 c0 -5 5 -10 11 -10 5 0 7 5 4 10 -3 6 -8 10 -11 10 -2 0
-4 -4 -4 -10z"/>
<path d="M4150 3538 c0 -4 6 -8 14 -8 8 0 17 4 20 8 2 4 -4 8 -15 8 -10 0 -19
-4 -19 -8z"/>
<path d="M3980 3529 c0 -5 5 -7 10 -4 6 3 10 8 10 11 0 2 -4 4 -10 4 -5 0 -10
-5 -10 -11z"/>
<path d="M4090 3519 c0 -5 5 -7 10 -4 6 3 10 8 10 11 0 2 -4 4 -10 4 -5 0 -10
-5 -10 -11z"/>
<path d="M4138 3513 c7 -3 16 -2 19 1 4 3 -2 6 -13 5 -11 0 -14 -3 -6 -6z"/>
<path d="M4137 3473 c-4 -3 -7 -11 -7 -17 0 -6 5 -5 12 2 6 6 9 14 7 17 -3 3
-9 2 -12 -2z"/>
<path d="M3965 3460 c-3 -5 -1 -10 4 -10 6 0 11 5 11 10 0 6 -2 10 -4 10 -3 0
-8 -4 -11 -10z"/>
<path d="M3886 3429 c4 -8 30 -6 38 2 3 3 -5 5 -19 5 -13 0 -22 -3 -19 -7z"/>
<path d="M3795 3419 c-4 -6 -5 -12 -2 -15 2 -3 7 2 10 11 7 17 1 20 -8 4z"/>
<path d="M3738 3403 c6 -2 18 -2 25 0 6 3 1 5 -13 5 -14 0 -19 -2 -12 -5z"/>
<path d="M3701 3385 c-1 -12 -6 -26 -12 -32 -7 -7 -3 -9 15 -6 18 4 24 9 18
17 -5 6 -12 18 -15 26 -4 11 -6 9 -6 -5z"/>
<path d="M3855 3391 c-3 -5 -1 -12 5 -16 5 -3 10 1 10 9 0 18 -6 21 -15 7z"/>
<path d="M3740 3365 c0 -8 5 -15 11 -15 5 0 8 4 4 9 -3 5 3 12 12 14 14 4 13
5 -4 6 -14 1 -23 -5 -23 -14z"/>
<path d="M3730 3319 c-14 -4 -23 -8 -20 -9 21 -7 41 -7 46 2 9 14 2 16 -26 7z"/>
<path d="M3445 3189 c-4 -6 -5 -12 -2 -15 2 -3 7 2 10 11 7 17 1 20 -8 4z"/>
<path d="M3379 3158 c15 -21 31 -23 31 -6 0 6 -3 8 -7 5 -3 -4 -13 -1 -22 6
-14 11 -14 10 -2 -5z"/>
<path d="M3340 3110 c-9 -6 -10 -10 -3 -10 6 0 15 5 18 10 8 12 4 12 -15 0z"/>
<path d="M3221 3073 c-1 -7 -13 -13 -28 -13 -37 0 -25 -8 23 -15 21 -3 34 -2
28 2 -6 4 -14 15 -17 23 -3 9 -6 10 -6 3z"/>
<path d="M7255 4721 c-3 -5 -2 -12 3 -15 5 -3 9 1 9 9 0 17 -3 19 -12 6z"/>
<path d="M7200 4670 c0 -5 5 -10 10 -10 6 0 10 5 10 10 0 6 -4 10 -10 10 -5 0
-10 -4 -10 -10z"/>
<path d="M6188 4610 c-52 -15 -96 -50 -133 -105 -35 -51 -37 -57 -33 -114 19
-270 417 -243 418 27 0 48 -25 95 -75 141 -57 53 -116 70 -177 51z"/>
<path d="M7036 4493 c3 -13 1 -23 -5 -23 -6 0 -8 -7 -4 -16 5 -14 7 -14 17 2
13 24 17 46 6 39 -5 -3 -11 1 -14 7 -3 7 -3 3 0 -9z"/>
<path d="M6973 4465 c-3 -9 -3 -18 -1 -21 3 -3 8 4 11 16 6 23 -1 27 -10 5z"/>
<path d="M6911 4443 c-1 -14 5 -23 14 -23 8 0 15 8 15 18 0 14 -2 14 -9 3 -7
-11 -10 -10 -14 5 -4 16 -5 16 -6 -3z"/>
<path d="M6942 4420 c-10 -17 -10 -20 3 -20 8 0 15 9 15 20 0 11 -1 20 -3 20
-1 0 -8 -9 -15 -20z"/>
<path d="M6711 4324 c0 -11 3 -14 6 -6 3 7 2 16 -1 19 -3 4 -6 -2 -5 -13z"/>
<path d="M6461 4285 c-6 -19 -33 -53 -59 -76 -26 -23 -39 -38 -30 -33 35 19
96 84 102 110 10 39 2 39 -13 -1z"/>
<path d="M6575 4270 c-3 -5 -2 -10 4 -10 5 0 13 5 16 10 3 6 2 10 -4 10 -5 0
-13 -4 -16 -10z"/>
<path d="M6558 4212 c-7 -24 9 -65 22 -57 5 3 10 11 10 16 0 6 -4 7 -10 4 -10
-6 -14 6 -11 38 3 22 -5 22 -11 -1z"/>
<path d="M6605 4222 c-5 -4 -11 -14 -13 -22 -3 -11 2 -10 17 4 12 11 21 21 21
23 0 5 -15 3 -25 -5z"/>
<path d="M6450 4211 c0 -9 30 -24 36 -18 2 1 -6 8 -16 15 -11 7 -20 8 -20 3z"/>
<path d="M6518 4202 c9 -10 19 -17 21 -16 6 5 -20 34 -30 34 -5 0 -1 -8 9 -18z"/>
<path d="M6420 4186 c0 -2 7 -9 15 -16 9 -7 15 -8 15 -2 0 5 -7 12 -15 16 -8
3 -15 4 -15 2z"/>
<path d="M6315 4150 c3 -5 8 -10 11 -10 2 0 4 5 4 10 0 6 -5 10 -11 10 -5 0
-7 -4 -4 -10z"/>
<path d="M6494 4148 c4 -13 -1 -18 -17 -19 l-22 0 23 -9 c12 -5 22 -15 22 -22
0 -10 -2 -10 -9 0 -6 11 -9 9 -13 -5 -3 -13 0 -20 9 -20 19 0 28 44 14 70 -6
12 -9 14 -7 5z"/>
<path d="M6521 4104 c0 -11 3 -14 6 -6 3 7 2 16 -1 19 -3 4 -6 -2 -5 -13z"/>
<path d="M6436 4088 c3 -5 10 -6 15 -3 13 9 11 12 -6 12 -8 0 -12 -4 -9 -9z"/>
<path d="M6338 4083 c7 -3 16 -2 19 1 4 3 -2 6 -13 5 -11 0 -14 -3 -6 -6z"/>
</g>
</svg>
